<svg width="50" height="50" viewBox="0 0 50 50" fill="none" xmlns="http://www.w3.org/2000/svg">
<path d="M46.4836 3.51688C44.1394 1.1737 41.0667 0 37.993 0C34.9204 0 31.8477 1.17264 29.5045 3.51688C24.816 8.20535 24.816 15.8086 29.5045 20.4971C31.8487 22.8413 34.9214 24.0139 37.993 24.0139C41.0646 24.0139 44.1394 22.8413 46.4836 20.4971C51.1721 15.8096 51.1721 8.2064 46.4836 3.51688Z" fill="white"/>
<path d="M23.3276 15.7886L0.680003 41.2226C-0.267376 42.2868 -0.218954 43.9637 0.788425 44.9721L1.98002 46.1647L1.21896 46.9268C0.716845 47.429 0.716845 48.249 1.21896 48.749L1.33264 48.8627C1.83475 49.3658 2.65476 49.3658 3.15687 48.8627L3.91793 48.1005L5.02847 49.2111C6.03585 50.2185 7.71481 50.2669 8.77904 49.3206L34.2056 26.6793C31.6066 26.0129 29.2171 24.6771 27.2698 22.7297C25.2834 20.7434 23.9781 18.3329 23.3276 15.7886ZM22.1265 30.8088L16.7107 36.2257C15.9002 37.0373 14.5865 37.0373 13.777 36.2257C12.9675 35.4141 12.9664 34.0993 13.777 33.292L19.1928 27.8751C20.0034 27.0635 21.3171 27.0635 22.1265 27.8751C22.936 28.6856 22.9371 29.9993 22.1265 30.8088Z" fill="white"/>
</svg>
