<svg width="73" height="56" viewBox="0 0 73 56" fill="none" xmlns="http://www.w3.org/2000/svg">
<path d="M3 23H49.6667" stroke="white" stroke-width="5" stroke-linecap="round" stroke-linejoin="round"/>
<path d="M3 43H39.6667" stroke="white" stroke-width="5" stroke-linecap="round" stroke-linejoin="round"/>
<path d="M3 3H63" stroke="white" stroke-width="5" stroke-linecap="round" stroke-linejoin="round"/>
<path d="M63 48C63 50.7613 60.7613 53 58 53C55.2387 53 53 50.7613 53 48C53 45.2387 55.2387 43 58 43C60.7613 43 63 45.2387 63 48Z" fill="white"/>
<path d="M63 48C63 50.7613 60.7613 53 58 53C55.2387 53 53 50.7613 53 48C53 45.2387 55.2387 43 58 43C60.7613 43 63 45.2387 63 48ZM63 48V21.6667C63 20.562 63.8953 19.6667 65 19.6667H69.6667" stroke="white" stroke-width="5" stroke-linecap="round"/>
</svg>
