<svg width="50" height="50" viewBox="0 0 50 50" fill="none" xmlns="http://www.w3.org/2000/svg">
<path fill-rule="evenodd" clip-rule="evenodd" d="M25 25C19.485 25 15 20.515 15 15C15 9.485 19.485 5 25 5C30.515 5 35 9.485 35 15C35 20.515 30.515 25 25 25ZM34.395 26.6824C37.81 23.9349 40 19.725 40 15C40 6.715 33.285 0 25 0C16.715 0 10 6.715 10 15C10 19.725 12.19 23.9349 15.605 26.6824C6.45751 30.1199 0 38.6125 0 50H5C5 37.5 13.9725 30 25 30C36.0275 30 45 37.5 45 50H50C50 38.6125 43.5425 30.1199 34.395 26.6824Z" fill="white"/>
</svg>
