<svg width="80" height="80" viewBox="0 0 80 80" fill="none" xmlns="http://www.w3.org/2000/svg">
<g clip-path="url(#clip0_8_19)">
<path d="M40.0016 80.0033C62.0939 80.0033 80.0033 62.0939 80.0033 40.0016C80.0033 17.9093 62.0939 0 40.0016 0C17.9093 0 0 17.9093 0 40.0016C0 62.0939 17.9093 80.0033 40.0016 80.0033Z" fill="#1ED760"/>
<path d="M56.2423 58.8557C55.5656 58.8557 55.1456 58.6491 54.5155 58.279C44.4518 52.2121 32.7413 51.9588 21.1742 54.3289C20.5441 54.4922 19.7208 54.7489 19.2541 54.7489C17.6874 54.7489 16.704 53.5055 16.704 52.1988C16.704 50.5354 17.6874 49.7454 18.9007 49.4887C32.1113 46.5719 45.6118 46.8286 57.1256 53.7155C58.109 54.3455 58.6924 54.9089 58.6924 56.3756C58.6924 57.8357 57.5457 58.8557 56.2423 58.8557Z" fill="black"/>
<path d="M60.5858 48.2786C59.7457 48.2786 59.179 47.9086 58.5957 47.602C48.5119 41.635 33.4847 39.2283 20.1108 42.8584C19.3374 43.0684 18.9174 43.2784 18.1907 43.2784C16.464 43.2784 15.0639 41.8751 15.0639 40.1516C15.0639 38.4282 15.9039 37.2815 17.564 36.8148C22.0475 35.5548 26.6277 34.6181 33.338 34.6181C43.8051 34.6181 53.9188 37.2149 61.8892 41.9584C63.1959 42.7318 63.7126 43.7351 63.7126 45.1352C63.6959 46.8719 62.3425 48.2786 60.5858 48.2786Z" fill="black"/>
<path d="M15.1606 23.3276C20.8375 21.6642 27.1944 20.8775 34.1147 20.8775C45.8885 20.8775 58.229 23.3276 67.2461 28.5878C68.5061 29.3145 69.3262 30.3146 69.3262 32.2313C69.3262 34.4247 67.5494 35.9881 65.586 35.9881L65.5827 35.9848C64.7426 35.9848 64.2259 35.7748 63.4993 35.3548C52.0188 28.5012 31.4813 26.8578 18.1941 30.5679C17.6107 30.7279 16.884 30.9846 16.1106 30.9846C13.9806 30.9846 12.3538 29.3212 12.3538 27.1778C12.3538 24.9877 13.7105 23.7476 15.1606 23.3276Z" fill="black"/>
</g>
<defs>
<clipPath id="clip0_8_19">
<rect width="80" height="80" fill="white"/>
</clipPath>
</defs>
</svg>
