<svg width="53" height="50" viewBox="0 0 53 50" fill="none" xmlns="http://www.w3.org/2000/svg">
<path d="M27.6316 0C18.4211 0 10.2632 5 6.05263 12.6316L0 6.57895V23.6842H17.1053L9.73684 16.3158C13.1579 9.73684 19.7368 5.26316 27.6316 5.26316C38.4211 5.26316 47.3684 14.2105 47.3684 25C47.3684 35.7895 38.4211 44.7368 27.6316 44.7368C18.9474 44.7368 11.8421 39.2105 8.94737 31.5789H3.42105C6.31579 42.1053 16.0526 50 27.6316 50C41.5789 50 52.6316 38.6842 52.6316 25C52.6316 11.3158 41.3158 0 27.6316 0ZM23.6842 13.1579V26.5789L36.0526 33.9474L38.1579 30.5263L27.6316 24.2105V13.1579H23.6842Z" fill="white"/>
</svg>
