<svg width="50" height="56" viewBox="0 0 50 56" fill="none" xmlns="http://www.w3.org/2000/svg">
<path d="M15.3409 8.57489V40.9976C13.7189 39.8188 11.6394 39.1094 9.375 39.1094C4.20557 39.1094 0 42.8052 0 47.3481C0 51.8909 4.20557 55.5867 9.375 55.5867C14.5444 55.5867 18.75 51.8909 18.75 47.3481V19.198L46.5909 12.3099V33.2663C44.9689 32.0874 42.8894 31.3781 40.625 31.3781C35.4556 31.3781 31.25 35.0739 31.25 39.6167C31.25 44.1595 35.4556 47.8553 40.625 47.8553C45.7944 47.8553 50 44.1595 50 39.6167V0L15.3409 8.57489Z" fill="white"/>
</svg>
